# xmcd CD database file
#
# Track frame offsets:
#	150
#	21258
#	32978
#	51570
#	66960
#	82785
#	104745
#	116428
#	137560
#	160208
#	175393
#	190965
#	208243
#	228688
#	243155
#	262955
#
# Disc length: 3675 seconds
#
# Revision: 1
# Processed by: cddbd v1.5.2PL0 Copyright (c) Steve Scherf et al.
# Submitted via: CDex 1.70beta2
#
DISCID=e80e5910
DTITLE=Various Artist - 204 - Liebesträume -Poesie im neuen Sound
DYEAR=1993
DGENRE=Poesie
TTITLE0=Melodie
TTITLE1=Walzer
TTITLE2=Der Schwan
TTITLE3=Liebestraum
TTITLE4=New World
TTITLE5=Air
TTITLE6=Poem
TTITLE7=Mondschein Sonate
TTITLE8=Ave Maria
TTITLE9=Etüde
TTITLE10=Träamerei
TTITLE11=Soft Song
TTITLE12=Song Of India
TTITLE13=Love Song
TTITLE14=Bacarole
TTITLE15=Wiegenlied
EXTD=YEAR: 1993
EXTT0=
EXTT1=
EXTT2=
EXTT3=
EXTT4=
EXTT5=
EXTT6=
EXTT7=
EXTT8=
EXTT9=
EXTT10=
EXTT11=
EXTT12=
EXTT13=
EXTT14=
EXTT15=
PLAYORDER=
